<svg width="100" height="20" viewBox="0 0 100 20" fill="none" xmlns="http://www.w3.org/2000/svg">
<circle opacity="0.8" cx="10" cy="10" r="10" fill="#07F1A2"/>
<circle opacity="0.8" cx="20" cy="10" r="8" fill="#04724D"/>
<path d="M33.162 15V5.102H36.746C37.782 5.102 38.65 5.30733 39.35 5.718C40.0593 6.11933 40.5913 6.69333 40.946 7.44C41.31 8.17733 41.492 9.05 41.492 10.058C41.492 11.066 41.3147 11.9387 40.96 12.676C40.6053 13.4133 40.0733 13.9873 39.364 14.398C38.664 14.7993 37.796 15 36.76 15H33.162ZM34.646 13.642H36.69C37.4553 13.642 38.0807 13.4927 38.566 13.194C39.0513 12.886 39.4107 12.466 39.644 11.934C39.8773 11.3927 39.994 10.7673 39.994 10.058C39.994 9.36733 39.8773 8.75133 39.644 8.21C39.42 7.66867 39.0653 7.244 38.58 6.936C38.104 6.61867 37.488 6.46 36.732 6.46H34.646V13.642ZM46.2892 15.084C45.5239 15.084 44.8752 14.93 44.3432 14.622C43.8112 14.3047 43.4052 13.8613 43.1252 13.292C42.8545 12.7227 42.7192 12.0647 42.7192 11.318C42.7192 10.562 42.8592 9.904 43.1392 9.344C43.4192 8.77467 43.8252 8.33133 44.3572 8.014C44.8892 7.68733 45.5379 7.524 46.3032 7.524C47.0685 7.524 47.7172 7.68733 48.2492 8.014C48.7812 8.33133 49.1825 8.77467 49.4532 9.344C49.7239 9.91333 49.8592 10.576 49.8592 11.332C49.8592 12.0693 49.7192 12.7227 49.4392 13.292C49.1685 13.8613 48.7672 14.3047 48.2352 14.622C47.7125 14.93 47.0639 15.084 46.2892 15.084ZM46.2892 13.796C46.7932 13.796 47.1992 13.684 47.5072 13.46C47.8245 13.236 48.0579 12.9373 48.2072 12.564C48.3565 12.1813 48.4312 11.766 48.4312 11.318C48.4312 10.87 48.3565 10.4593 48.2072 10.086C48.0579 9.71267 47.8245 9.414 47.5072 9.19C47.1992 8.95667 46.7932 8.84 46.2892 8.84C45.7945 8.84 45.3885 8.95667 45.0712 9.19C44.7539 9.414 44.5205 9.71267 44.3712 10.086C44.2312 10.4593 44.1612 10.87 44.1612 11.318C44.1612 11.7753 44.2312 12.1907 44.3712 12.564C44.5205 12.9373 44.7539 13.236 45.0712 13.46C45.3885 13.684 45.7945 13.796 46.2892 13.796ZM54.545 15.084C53.7704 15.084 53.1217 14.9253 52.599 14.608C52.0857 14.2907 51.6984 13.852 51.437 13.292C51.185 12.7227 51.059 12.0693 51.059 11.332C51.059 10.604 51.1897 9.95533 51.451 9.386C51.7217 8.80733 52.123 8.35467 52.655 8.028C53.1964 7.692 53.8637 7.524 54.657 7.524C55.1984 7.524 55.679 7.61733 56.099 7.804C56.519 7.98133 56.8597 8.24733 57.121 8.602C57.3917 8.94733 57.569 9.38133 57.653 9.904H56.211C56.0897 9.52133 55.8844 9.246 55.595 9.078C55.315 8.91 54.9837 8.826 54.601 8.826C54.0877 8.826 53.677 8.94733 53.369 9.19C53.0704 9.43267 52.851 9.74533 52.711 10.128C52.571 10.5107 52.501 10.912 52.501 11.332C52.501 11.7707 52.571 12.1767 52.711 12.55C52.8604 12.9233 53.0844 13.2267 53.383 13.46C53.691 13.684 54.0924 13.796 54.587 13.796C54.9604 13.796 55.3057 13.7167 55.623 13.558C55.9404 13.39 56.1457 13.11 56.239 12.718H57.723C57.639 13.2593 57.443 13.7073 57.135 14.062C56.827 14.4073 56.4444 14.664 55.987 14.832C55.539 15 55.0584 15.084 54.545 15.084ZM67.3141 15.112C66.2968 15.112 65.4428 14.8973 64.7521 14.468C64.0708 14.0387 63.5575 13.446 63.2121 12.69C62.8668 11.934 62.6941 11.0613 62.6941 10.072C62.6941 9.08267 62.8668 8.20533 63.2121 7.44C63.5668 6.67467 64.0848 6.07733 64.7661 5.648C65.4568 5.20933 66.3108 4.99 67.3281 4.99C68.0655 4.99 68.7095 5.11133 69.2601 5.354C69.8108 5.58733 70.2541 5.92333 70.5901 6.362C70.9355 6.79133 71.1641 7.30467 71.2761 7.902H69.8201C69.6801 7.426 69.3955 7.048 68.9661 6.768C68.5368 6.488 67.9861 6.348 67.3141 6.348C66.5675 6.348 65.9655 6.52067 65.5081 6.866C65.0601 7.21133 64.7335 7.664 64.5281 8.224C64.3228 8.77467 64.2201 9.372 64.2201 10.016C64.2201 10.6787 64.3275 11.2947 64.5421 11.864C64.7568 12.4333 65.0975 12.8907 65.5641 13.236C66.0308 13.5813 66.6281 13.754 67.3561 13.754C67.8041 13.754 68.2008 13.6933 68.5461 13.572C68.8915 13.4413 69.1808 13.2593 69.4141 13.026C69.6475 12.7833 69.8061 12.5033 69.8901 12.186H71.4441C71.3228 12.7927 71.0755 13.3153 70.7021 13.754C70.3288 14.1927 69.8575 14.5287 69.2881 14.762C68.7188 14.9953 68.0608 15.112 67.3141 15.112ZM72.8586 15V5.102H74.3006V8.658C74.4966 8.406 74.7206 8.196 74.9726 8.028C75.2339 7.86 75.5139 7.734 75.8126 7.65C76.1112 7.566 76.4099 7.524 76.7086 7.524C77.4179 7.524 77.9732 7.678 78.3746 7.986C78.7759 8.28467 79.0606 8.69067 79.2286 9.204C79.3966 9.71733 79.4806 10.296 79.4806 10.94V15H78.0246V11.276C78.0246 10.9773 78.0012 10.6833 77.9546 10.394C77.9172 10.1047 77.8426 9.84333 77.7306 9.61C77.6186 9.36733 77.4459 9.176 77.2126 9.036C76.9886 8.88667 76.6852 8.812 76.3026 8.812C75.9386 8.812 75.6259 8.89133 75.3646 9.05C75.1126 9.20867 74.9072 9.42333 74.7486 9.694C74.5992 9.95533 74.4872 10.2447 74.4126 10.562C74.3379 10.87 74.3006 11.178 74.3006 11.486V15H72.8586ZM83.5504 15.084C83.2144 15.084 82.8877 15.042 82.5704 14.958C82.2624 14.8647 81.9871 14.7293 81.7444 14.552C81.5017 14.3653 81.3057 14.1367 81.1564 13.866C81.0164 13.586 80.9464 13.2593 80.9464 12.886C80.9464 12.438 81.0304 12.0693 81.1984 11.78C81.3757 11.4813 81.6091 11.2527 81.8984 11.094C82.1877 10.926 82.5191 10.8093 82.8924 10.744C83.2751 10.6693 83.6717 10.632 84.0824 10.632H85.8884C85.8884 10.268 85.8324 9.95067 85.7204 9.68C85.6084 9.4 85.4311 9.18533 85.1884 9.036C84.9551 8.87733 84.6424 8.798 84.2504 8.798C84.0171 8.798 83.7931 8.826 83.5784 8.882C83.3731 8.92867 83.1957 9.008 83.0464 9.12C82.8971 9.232 82.7944 9.38133 82.7384 9.568H81.2264C81.2824 9.21333 81.4084 8.91 81.6044 8.658C81.8004 8.39667 82.0431 8.182 82.3324 8.014C82.6217 7.846 82.9297 7.72467 83.2564 7.65C83.5924 7.566 83.9331 7.524 84.2784 7.524C85.3424 7.524 86.1077 7.83667 86.5744 8.462C87.0504 9.078 87.2884 9.92733 87.2884 11.01V15H86.0424L85.9864 14.062C85.7717 14.3513 85.5151 14.5707 85.2164 14.72C84.9271 14.8693 84.6377 14.9673 84.3484 15.014C84.0591 15.0607 83.7931 15.084 83.5504 15.084ZM83.7744 13.866C84.1944 13.866 84.5631 13.796 84.8804 13.656C85.1977 13.5067 85.4451 13.2967 85.6224 13.026C85.7997 12.746 85.8884 12.4193 85.8884 12.046V11.738H84.5724C84.3017 11.738 84.0357 11.7473 83.7744 11.766C83.5224 11.7753 83.2891 11.8127 83.0744 11.878C82.8691 11.934 82.7011 12.032 82.5704 12.172C82.4491 12.312 82.3884 12.5127 82.3884 12.774C82.3884 13.026 82.4537 13.2313 82.5844 13.39C82.7151 13.5487 82.8877 13.67 83.1024 13.754C83.3171 13.8287 83.5411 13.866 83.7744 13.866ZM89.0187 15V7.622H90.4607V15H89.0187ZM89.7327 6.642C89.4527 6.642 89.2241 6.558 89.0467 6.39C88.8787 6.21267 88.7947 5.98867 88.7947 5.718C88.7947 5.44733 88.8834 5.228 89.0607 5.06C89.2381 4.88267 89.4621 4.794 89.7327 4.794C89.9847 4.794 90.2041 4.88267 90.3907 5.06C90.5867 5.228 90.6847 5.44733 90.6847 5.718C90.6847 5.98867 90.5914 6.21267 90.4047 6.39C90.2274 6.558 90.0034 6.642 89.7327 6.642ZM92.2453 15V7.622H93.6173L93.6873 8.658C93.8739 8.38733 94.0979 8.17267 94.3593 8.014C94.6206 7.846 94.9006 7.72467 95.1993 7.65C95.4979 7.566 95.7873 7.524 96.0673 7.524C96.7766 7.524 97.3319 7.678 97.7333 7.986C98.1439 8.28467 98.4333 8.69067 98.6013 9.204C98.7786 9.708 98.8673 10.282 98.8673 10.926V15H97.4113V11.22C97.4113 10.9213 97.3926 10.6273 97.3553 10.338C97.3179 10.0487 97.2386 9.792 97.1173 9.568C97.0053 9.33467 96.8419 9.15267 96.6273 9.022C96.4126 8.882 96.1233 8.812 95.7593 8.812C95.3113 8.812 94.9333 8.93333 94.6253 9.176C94.3173 9.41867 94.0839 9.74533 93.9253 10.156C93.7666 10.5667 93.6873 11.0287 93.6873 11.542V15H92.2453Z" fill="white"/>
</svg>
